# Blender 3.3.1
# www.blender.org
o Cube
v -0.074560 -0.021769 0.125000
v -0.074560 0.021769 0.125000
v -0.074560 -0.021769 -0.125000
v -0.074560 0.021769 -0.125000
v 0.102438 -0.021769 0.125000
v 0.102438 0.021769 0.125000
v 0.102438 -0.021769 -0.125000
v 0.102438 0.021769 -0.125000
v -0.082432 -0.028945 0.125000
v -0.082432 0.028945 0.125000
v -0.082432 0.028945 -0.125000
v -0.082432 -0.028945 -0.125000
v 0.102438 -0.028945 -0.125000
v 0.102438 0.028945 -0.125000
v 0.102438 -0.028945 0.125000
v 0.102438 0.028945 0.125000
v 0.094943 0.021769 -0.118089
v 0.094943 -0.021769 -0.118089
v 0.094943 0.021769 0.118089
v 0.094943 -0.021769 0.118089
v -0.074560 -0.021769 0.118089
v -0.074560 0.021769 0.118089
v -0.074560 0.021769 -0.118089
v -0.074560 -0.021769 -0.118089
v -0.085622 0.000000 0.125000
v -0.085622 0.000000 -0.125000
v -0.077751 0.000000 0.125000
v -0.077751 0.000000 -0.125000
v 0.091753 0.000000 -0.118089
v 0.091753 0.000000 0.118089
v -0.077751 0.000000 0.118089
v -0.077751 0.000000 -0.118089
vn -0.9940 0.1096 -0.0000
vn 0.9894 0.1450 -0.0000
vn -0.0000 1.0000 -0.0000
vn -0.0000 -1.0000 -0.0000
vn -0.0000 -0.0000 1.0000
vn -0.0000 -0.0000 -1.0000
vn 1.0000 -0.0000 -0.0000
vn 0.9894 -0.1450 -0.0000
vn -0.9940 -0.1096 -0.0000
vt 0.878974 0.601065
vt 0.682939 0.341703
vt 0.868363 0.640752
vt 0.698845 0.792040
vt 0.682939 0.699723
vt 0.773944 0.640757
vt 0.847142 0.327784
vt 0.878974 0.873751
vt 0.587545 0.781826
vt 0.773944 0.699723
vt 0.773349 0.341703
vt 0.878974 0.600470
vt 0.288494 0.781231
vt 0.867767 0.327784
vt 0.878974 0.327784
vt 0.789850 0.792040
vt 0.846546 0.327784
vt 0.637437 0.327784
vt 0.682939 0.654676
vt 0.868363 0.327784
vt 0.636841 0.735728
vt 0.773944 0.327784
vt 0.847141 0.640754
vt 0.819447 0.327784
vt 0.274575 0.781826
vt 0.846546 0.690049
vt 0.773349 0.654676
vt 0.637437 0.690050
vt 0.601466 0.781231
vt 0.274575 0.735728
vt 0.819447 0.690049
vt 0.867768 0.640753
vt 0.636841 0.690226
vt 0.727846 0.327784
vt 0.714155 0.836492
vt 0.636841 0.000298
vt 0.636841 0.362739
vt 0.999702 0.000298
vt 0.698250 0.655271
vt 0.818851 0.654676
vt 0.274575 0.362739
vt 0.637437 0.000298
vt 0.274575 0.736324
vt 0.805161 0.836492
vt 0.274575 0.690226
vt 0.789255 0.655271
vt 0.728442 0.327784
vt 0.274575 0.000298
vt 0.274575 0.363335
vt 0.728442 0.654676
vt 0.682344 0.690050
vt 0.637437 0.327189
vt 0.601466 0.736324
vt 0.274575 0.690821
vt 0.636841 0.363335
vt 0.682344 0.327784
vt 0.727846 0.654676
vt 0.999702 0.327189
vt 0.636841 0.690821
vt 0.818851 0.327784
vt 0.000298 0.645775
vt 0.832698 0.680034
vt 0.857752 0.627501
vt 0.287827 0.791842
vt 0.833294 0.680034
vt 0.273980 0.645538
vt 0.000298 0.303179
vt 0.857157 0.627502
vt 0.832698 0.337799
vt 0.833294 0.337800
vt 0.878378 0.341036
vt 0.273980 0.302941
vt 0.888989 0.601065
vt 0.878378 0.640752
vt 0.271602 0.005311
vt 0.002805 0.005248
vt 0.857157 0.327784
vt 0.888989 0.873751
vt 0.002676 0.943405
vt 0.857752 0.327784
vt 0.888989 0.327784
vt 0.587545 0.791842
vt 0.888989 0.600470
vt 0.271473 0.943468
vt 0.698250 0.836492
vt 0.714155 0.655271
vt 0.636841 0.181518
vt 0.789255 0.836492
vt 0.805161 0.655271
vt 0.274575 0.181518
vt 0.684337 0.836058
vt 0.700243 0.655704
vt 0.878974 0.737408
vt 0.775342 0.836059
vt 0.878974 0.464127
vt 0.791248 0.655705
vt 0.136633 0.647973
vt 0.137645 0.300743
vt 0.137310 0.000298
vt 0.888989 0.737408
vt 0.888989 0.464127
vt 0.136968 0.948418
s 0
f 25/87/1 10/37/1 11/41/1 26/90/1
f 27/93/2 1/1/2 21/73/2 31/100/2
f 7/25/3 3/9/3 24/82/3 18/64/3
f 5/17/3 7/26/3 18/65/3 20/70/3
f 12/45/4 13/49/4 15/55/4 9/33/4
f 14/52/3 11/42/3 10/38/3 16/58/3
f 27/91/5 2/5/5 10/39/5 25/85/5
f 28/94/6 3/10/6 12/46/6 26/88/6
f 3/11/6 7/27/6 13/50/6 12/47/6
f 8/29/6 4/13/6 11/43/6 14/53/6
f 7/28/7 5/18/7 15/56/7 13/51/7
f 6/21/7 8/30/7 14/54/7 16/59/7
f 5/19/5 1/2/5 9/34/5 15/57/5
f 2/6/5 6/22/5 16/60/5 10/40/5
f 32/102/6 23/79/6 17/61/6 29/97/6
f 29/97/8 17/61/8 19/67/8 30/98/8
f 30/98/5 19/67/5 22/76/5 31/99/5
f 6/23/4 2/7/4 22/77/4 19/68/4
f 8/31/4 6/24/4 19/69/4 17/62/4
f 4/14/4 8/32/4 17/63/4 23/80/4
f 28/95/8 4/15/8 23/81/8 32/101/8
f 1/3/3 5/20/3 20/71/3 21/74/3
f 3/12/2 28/95/2 32/101/2 24/83/2
f 20/72/5 30/98/5 31/99/5 21/75/5
f 18/66/2 29/97/2 30/98/2 20/72/2
f 24/84/6 32/102/6 29/97/6 18/66/6
f 4/16/6 28/96/6 26/89/6 11/44/6
f 1/4/5 27/92/5 25/86/5 9/35/5
f 2/8/8 27/93/8 31/100/8 22/78/8
f 9/36/9 25/87/9 26/90/9 12/48/9
